<svg width="48" height="48" viewBox="0 0 48 48" fill="none" xmlns="http://www.w3.org/2000/svg">
<g clip-path="url(#clip0_317_12)">
<path d="M44 35.1111C44 40.02 40.02 44 35.1111 44H12.8889C7.98 44 4 40.02 4 35.1111V12.8889C4 7.98 7.98 4 12.8889 4H35.1111C40.02 4 44 7.98 44 12.8889V35.1111Z" fill="#DFE3E7"/>
<path d="M39.3353 22.249C38.9473 21.598 37.6043 21.5 36.8373 21.5C35.5633 21.5 34.3373 21.856 33.4643 22.485C33.1483 22.724 33.0153 23.063 33.1183 23.369C33.1923 23.59 33.4353 23.815 33.8903 23.822L34.0283 23.804C34.3703 23.761 34.8183 23.706 35.2773 23.668C33.3163 24.551 31.1423 25.005 29.0243 25.441C27.6883 25.719 26.1173 25.855 24.2223 25.855C23.5433 25.855 22.8713 25.838 22.2193 25.813C19.8653 25.724 17.9043 25.425 15.8713 24.847C15.4443 24.716 15.0173 24.591 14.5913 24.466C12.8323 23.951 11.1713 23.464 9.57132 22.598C9.27232 22.434 8.87332 22.515 8.66032 22.778C8.53832 22.928 8.48132 23.118 8.50232 23.311C8.52232 23.504 8.61632 23.677 8.76732 23.8C10.6303 25.309 12.7003 26.139 14.8903 27.018L15.0903 27.098C17.3963 27.99 19.8183 28.462 22.2913 28.499C22.8553 28.507 23.4213 28.516 23.9863 28.516C25.6753 28.516 27.6643 28.449 29.6063 27.953C31.7813 27.39 34.2473 26.752 36.3693 25.248C36.7433 24.985 36.8753 24.491 36.6833 24.073C36.5913 23.875 36.4403 23.726 36.2603 23.628C36.9233 23.64 37.1033 23.746 37.1093 23.729C37.1823 23.94 37.0933 24.658 36.2453 26.933C36.1053 27.286 36.2113 27.526 36.2873 27.639C36.4063 27.814 36.6013 27.914 36.8233 27.914C37.0123 27.914 37.2073 27.842 37.4113 27.687C39.2073 26.146 39.8523 22.862 39.3353 22.249Z" fill="#969A9E"/>
<path d="M24.0044 13H18.9834C18.4314 13 17.9834 12.552 17.9834 12V4H30.0184V7L24.0044 13Z" fill="#AFB5BA"/>
<path d="M24.0176 13V9C24.0176 7.895 24.9126 7 26.0176 7H30.0176L24.0176 13Z" fill="#CED4DA"/>
</g>
<defs>
<clipPath id="clip0_317_12">
<rect width="48" height="48" fill="white"/>
</clipPath>
</defs>
</svg>
