<svg width="1794" height="566" viewBox="0 0 1794 566" fill="none" xmlns="http://www.w3.org/2000/svg">
<g clip-path="url(#clip0)">
<path d="M973.398 123.227V87.6468C973.438 82.2309 977.52 78.609 982.458 78.609H1142.02C1147.15 78.609 1151.23 82.3339 1151.23 87.6149V118.184C1151.17 123.23 1146.85 129.942 1139.21 140.568L1056.49 258.572C1087.19 257.854 1119.67 262.439 1147.56 278.128C1153.84 281.677 1155.55 286.85 1156.03 291.994V330.045C1156.03 335.304 1150.29 341.379 1144.31 338.215C1095.14 312.425 1029.97 309.621 975.665 338.524C970.102 341.496 964.314 335.544 964.314 330.285V294.087C964.314 288.318 964.407 278.425 970.239 269.622L1065.99 132.226H982.635C977.542 132.224 973.457 128.592 973.398 123.227V123.227ZM391.338 345.706H342.787C338.167 345.425 334.445 341.95 334.102 337.512L334.146 88.2546C334.146 83.2847 338.304 79.278 343.502 79.278L388.711 79.2608C393.448 79.5206 397.234 83.0985 397.546 87.6468V120.201H398.435C410.191 88.7251 432.428 74.0141 462.308 74.0141C492.693 74.0141 511.673 88.7251 525.306 120.201C537.098 88.7251 563.81 74.0141 592.389 74.0141C612.793 74.0141 634.976 82.4221 648.591 101.307C664.018 122.23 660.83 152.701 660.83 179.393L660.81 336.72C660.81 341.719 656.578 345.704 651.427 345.704H602.951C598.057 345.422 594.234 341.548 594.234 336.771L594.215 204.595C594.215 194.116 595.102 167.922 592.833 157.911C589.181 141.136 578.313 136.416 564.266 136.416C552.535 136.416 540.272 144.288 535.27 156.879C530.31 169.478 530.741 190.411 530.741 204.595V336.715C530.741 341.714 526.546 345.699 521.375 345.699H472.89C468.008 345.417 464.161 341.543 464.161 336.767L464.099 204.59C464.099 176.773 468.655 135.89 434.229 135.89C399.303 135.89 400.672 175.788 400.672 204.59L400.653 336.71C400.648 341.722 396.536 345.706 391.338 345.706V345.706ZM1288.64 74.0165C1360.63 74.0165 1399.68 135.902 1399.68 214.569C1399.68 290.575 1356.55 350.968 1288.64 350.968C1217.92 350.968 1179.37 288.97 1179.37 211.915C1179.37 134.341 1218.35 74.0165 1288.64 74.0165V74.0165ZM1289.1 124.867C1253.25 124.867 1250.98 173.7 1250.98 204.024C1250.98 234.458 1250.52 299.466 1288.64 299.466C1326.17 299.466 1327.96 247.04 1327.96 215.13C1327.96 194.124 1327.07 168.961 1320.71 149.015C1315.29 131.68 1304.41 124.867 1289.1 124.867V124.867ZM1493.09 345.706H1444.68C1439.79 345.425 1435.97 341.55 1435.97 336.774L1435.86 87.4263C1436.29 82.8534 1440.31 79.2755 1445.21 79.2755L1490.29 79.2583C1494.56 79.4838 1498.04 82.3829 1498.92 86.2598V124.357H1499.84C1513.43 90.2984 1532.38 74.0116 1565.92 74.0116C1587.71 74.0116 1609.05 81.8928 1622.64 103.421C1635.26 123.286 1635.26 156.882 1635.26 180.993V337.833C1634.7 342.298 1630.71 345.704 1626.05 345.704H1577.3C1572.87 345.442 1569.2 342.087 1568.64 337.833V202.507C1568.64 175.281 1571.86 135.363 1538.26 135.363C1526.46 135.363 1515.7 143.254 1510.23 155.325C1503.44 170.544 1502.55 185.706 1502.55 202.51V336.722C1502.43 341.722 1498.25 345.706 1493.09 345.706V345.706ZM296.193 299.973C287.361 287.673 277.914 277.746 277.914 254.99V179.332C277.914 147.322 280.205 117.902 256.554 95.827C237.912 77.9301 207.042 71.6247 183.401 71.6247C137.195 71.6247 85.668 88.8697 74.8436 145.962C73.6918 152.069 78.1127 155.237 82.0974 156.134L129.154 161.234C133.528 161.008 136.741 156.649 137.584 152.284C141.633 132.594 158.108 123.112 176.625 123.112C186.579 123.112 197.936 126.813 203.868 135.745C210.679 145.707 209.765 159.406 209.765 170.97V177.222C181.587 180.39 144.792 182.483 118.489 194.06C88.0549 207.229 66.7321 233.988 66.7321 273.445C66.7321 323.938 98.5018 349.167 139.344 349.167C173.934 349.167 192.748 341.006 219.425 313.851C228.247 326.614 231.127 332.772 247.242 346.233C250.866 348.152 255.493 348 258.721 345.089L258.828 345.206C268.53 336.558 286.177 321.242 296.041 312.942C299.979 309.673 299.283 304.374 296.193 299.973V299.973ZM200.668 278.16C192.934 291.759 180.7 300.181 167.082 300.181C148.448 300.181 137.552 285.98 137.552 265.01C137.552 223.678 174.665 216.179 209.772 216.179V226.668C209.772 245.535 210.216 261.324 200.668 278.16V278.16ZM932.647 299.973C923.747 287.673 914.317 277.746 914.317 254.99V179.332C914.317 147.322 916.591 117.902 892.937 95.827C874.379 77.9301 843.464 71.6247 819.87 71.6247C773.673 71.6247 722.117 88.8697 711.303 145.962C710.151 152.069 714.572 155.237 718.549 156.134L765.576 161.234C770.019 161.008 773.208 156.649 774.036 152.284C778.109 132.594 794.513 123.112 813.057 123.112C823.036 123.112 834.417 126.813 840.291 135.745C847.084 145.707 846.177 159.406 846.177 170.97V177.222C818.037 180.39 781.26 182.483 754.941 194.06C724.507 207.229 703.154 233.988 703.154 273.445C703.154 323.938 734.905 349.167 775.803 349.167C810.303 349.167 829.216 341.006 855.864 313.851C864.667 326.614 867.569 332.772 883.681 346.233C887.333 348.152 891.913 348 895.123 345.089L895.229 345.206C904.953 336.558 922.595 321.242 932.51 312.942C936.46 309.673 935.784 304.374 932.647 299.973V299.973ZM837.088 278.16C829.415 291.759 817.132 300.181 803.502 300.181C784.868 300.181 774.019 285.98 774.019 265.01C774.019 223.678 811.082 216.179 846.182 216.179V226.668C846.182 245.535 846.653 261.324 837.088 278.16Z" fill="white"/>
<path d="M1038.23 442.564C945.613 508.672 816.606 544.375 702.789 544.375C543.359 544.375 401.256 486.666 291.77 387.798C281.644 378.652 288.182 367.926 300.773 375.163C419.878 444.042 562.619 484.34 712.391 484.34C813.393 484.34 920.673 464.228 1022.62 420.857C1044.91 411.356 1054.15 431.186 1038.23 442.564Z" fill="#F9A51B"/>
<path d="M1077.8 397.946C1066.09 382.983 1000.68 390.871 971.298 394.341C962.454 395.427 961.013 387.646 969.076 382.022C1021.24 345.554 1106.76 356.171 1116.65 368.208C1126.65 380.591 1114.01 466.394 1065.13 507.351C1057.6 513.694 1050.52 510.253 1053.84 501.953C1064.81 474.437 1089.46 412.856 1077.8 397.946V397.946Z" fill="#F9A51B"/>
<path d="M1690.48 305.004C1695.95 305.004 1700.6 306.928 1704.44 310.775C1708.27 314.588 1710.2 319.225 1710.2 324.653C1710.2 330.116 1708.27 334.759 1704.44 338.597C1700.61 342.447 1695.97 344.376 1690.48 344.376C1685.01 344.376 1680.36 342.447 1676.54 338.597C1672.73 334.759 1670.82 330.111 1670.82 324.653C1670.82 319.225 1672.73 314.588 1676.58 310.775C1680.42 306.928 1685.07 305.004 1690.48 305.004ZM1713.29 324.607C1713.29 318.323 1711.05 312.969 1706.61 308.548C1702.16 304.122 1696.76 301.909 1690.46 301.909C1684.19 301.909 1678.85 304.122 1674.4 308.548C1669.96 312.991 1667.72 318.338 1667.72 324.607C1667.72 330.927 1669.93 336.316 1674.34 340.756C1678.76 345.233 1684.15 347.471 1690.45 347.471C1696.76 347.471 1702.16 345.233 1706.61 340.756C1711.05 336.308 1713.29 330.922 1713.29 324.607V324.607ZM1696.52 319.688C1696.52 321.565 1695.65 322.842 1693.91 323.528C1692.95 323.906 1691.53 324.072 1689.65 324.072H1685.61V315.159H1689.42C1691.91 315.159 1693.7 315.444 1694.84 316.061C1695.95 316.684 1696.52 317.875 1696.52 319.688ZM1681.31 312.062V336.989H1685.61V327.165H1689.13C1691.52 327.165 1693.18 327.442 1694.11 327.959C1695.72 328.91 1696.51 330.792 1696.51 333.684V335.659L1696.61 336.455L1696.66 336.737C1696.7 336.808 1696.72 336.906 1696.74 336.989H1700.83L1700.67 336.671C1700.55 336.455 1700.48 336.039 1700.44 335.382C1700.39 334.718 1700.39 334.105 1700.39 333.522V331.711C1700.39 330.451 1699.92 329.157 1699.03 327.827C1698.11 326.513 1696.7 325.699 1694.74 325.398C1696.28 325.153 1697.48 324.756 1698.36 324.192C1700.01 323.124 1700.83 321.487 1700.83 319.269C1700.83 316.142 1699.52 314.039 1696.93 312.956C1695.47 312.366 1693.19 312.067 1690.08 312.067L1681.31 312.062Z" fill="white"/>
</g>
<defs>
<clipPath id="clip0">
<rect width="1794" height="566" fill="white"/>
</clipPath>
</defs>
</svg>
